<svg width="16" height="16" viewBox="0 0 16 16" fill="none" xmlns="http://www.w3.org/2000/svg">
<mask id="mask0_455_746" style="mask-type:alpha" maskUnits="userSpaceOnUse" x="0" y="0" width="16" height="16">
<rect width="16" height="16" fill="#725EB2"/>
</mask>
<g mask="url(#mask0_455_746)">
<path d="M2.66671 14C2.30004 14 1.98615 13.8694 1.72504 13.6083C1.46393 13.3472 1.33337 13.0333 1.33337 12.6667V10.6667H14.6667V12.6667C14.6667 13.0333 14.5362 13.3472 14.275 13.6083C14.0139 13.8694 13.7 14 13.3334 14H2.66671ZM2.66671 12V12.6667H13.3334V12H2.66671ZM8.00004 9C7.60004 9 7.28337 9.11111 7.05004 9.33333C6.81671 9.55556 6.38893 9.66667 5.76671 9.66667C5.14448 9.66667 4.72226 9.55556 4.50004 9.33333C4.27782 9.11111 3.96671 9 3.56671 9C3.16671 9 2.85004 9.11111 2.61671 9.33333C2.38337 9.55556 1.9556 9.66667 1.33337 9.66667V8.33333C1.73337 8.33333 2.05004 8.22222 2.28337 8C2.51671 7.77778 2.94449 7.66667 3.56671 7.66667C4.18893 7.66667 4.61115 7.77778 4.83337 8C5.0556 8.22222 5.36671 8.33333 5.76671 8.33333C6.16671 8.33333 6.48337 8.22222 6.71671 8C6.95004 7.77778 7.37782 7.66667 8.00004 7.66667C8.62226 7.66667 9.05004 7.77778 9.28337 8C9.51671 8.22222 9.83337 8.33333 10.2334 8.33333C10.6334 8.33333 10.9445 8.22222 11.1667 8C11.3889 7.77778 11.8112 7.66667 12.4334 7.66667C13.0556 7.66667 13.4945 7.77778 13.75 8C14.0056 8.22222 14.3112 8.33333 14.6667 8.33333V9.66667C14.0445 9.66667 13.6278 9.55556 13.4167 9.33333C13.2056 9.11111 12.9 9 12.5 9C12.1 9 11.7778 9.11111 11.5334 9.33333C11.2889 9.55556 10.8556 9.66667 10.2334 9.66667C9.61115 9.66667 9.18337 9.55556 8.95004 9.33333C8.71671 9.11111 8.40004 9 8.00004 9ZM1.33337 6.66667V6C1.33337 4.72222 1.93615 3.73611 3.14171 3.04167C4.34726 2.34722 5.96671 2 8.00004 2C10.0334 2 11.6528 2.34722 12.8584 3.04167C14.0639 3.73611 14.6667 4.72222 14.6667 6V6.66667H1.33337ZM8.00004 3.33333C6.62226 3.33333 5.46948 3.50556 4.54171 3.85C3.61393 4.19444 3.02226 4.68889 2.76671 5.33333H13.2334C12.9778 4.68889 12.3862 4.19444 11.4584 3.85C10.5306 3.50556 9.37782 3.33333 8.00004 3.33333Z" fill="#1B8BF5"/>
</g>
</svg>
